<?xml version="1.0" standalone="no"?>
<!DOCTYPE svg PUBLIC "-//W3C//DTD SVG 20010904//EN"
 "http://www.w3.org/TR/2001/REC-SVG-20010904/DTD/svg10.dtd">
<svg version="1.0" xmlns="http://www.w3.org/2000/svg"
 width="512.000000pt" height="512.000000pt" viewBox="0 0 512.000000 512.000000"
 preserveAspectRatio="xMidYMid meet">
<metadata>
Created by potrace 1.11, written by Peter Selinger 2001-2013
</metadata>
<g transform="translate(0.000000,512.000000) scale(0.100000,-0.100000)"
fill="#000000" stroke="none">
<path d="M1010 4858 c-130 -132 -220 -297 -250 -458 -14 -74 -14 -212 0 -274
13 -58 13 -58 -17 -42 -69 36 -124 112 -138 189 -9 47 -19 40 -17 -10 5 -146
89 -286 205 -342 34 -17 59 -39 86 -80 104 -151 245 -261 516 -401 77 -40 158
-86 180 -103 44 -33 165 -156 165 -168 0 -4 6 -14 13 -21 24 -24 59 -88 48
-88 -5 0 -13 5 -16 10 -11 18 -115 91 -150 106 -19 8 -42 14 -52 13 -11 0 -4
-7 17 -16 48 -20 126 -74 140 -97 8 -13 1 -10 -25 9 -19 15 -38 25 -42 21 -4
-3 2 -13 13 -21 16 -13 16 -14 2 -9 -11 4 -18 1 -18 -5 0 -9 -6 -9 -22 -1 -21
10 -21 9 2 -9 14 -12 32 -20 40 -18 11 3 16 -5 16 -27 1 -17 -1 -25 -3 -18 -3
6 -8 10 -13 7 -4 -3 -23 2 -42 9 -24 10 -42 30 -61 65 -16 28 -32 53 -38 56
-5 4 -6 11 -3 17 4 7 2 8 -4 4 -8 -5 -4 -24 14 -64 32 -72 48 -90 97 -103 96
-26 95 -10 12 -174 -41 -80 -75 -147 -75 -150 0 -3 -11 -29 -23 -57 -13 -29
-32 -75 -41 -103 -10 -27 -21 -57 -24 -65 -3 -8 -6 -18 -7 -22 -2 -5 -3 -9 -4
-10 -5 -7 -14 -56 -15 -85 0 -18 -4 -33 -7 -33 -12 0 -14 -190 -4 -270 3 -25
7 -51 7 -57 1 -7 4 -13 8 -13 4 0 7 -6 7 -13 0 -31 85 -185 125 -227 50 -51
148 -141 148 -135 0 2 12 -7 26 -20 15 -14 31 -25 35 -25 5 0 11 -11 15 -24 7
-28 -6 -54 -83 -174 -93 -144 -97 -190 -21 -261 l40 -37 -18 -59 c-9 -33 -17
-91 -17 -129 0 -40 -6 -85 -14 -105 -9 -20 -15 -36 -13 -36 1 0 -3 -13 -9 -28
-6 -16 -11 -33 -11 -38 0 -5 -4 -9 -8 -9 -5 0 -9 -6 -9 -12 0 -21 -73 -138
-141 -228 -35 -46 -66 -90 -69 -97 -3 -7 -20 -22 -39 -34 -24 -15 -34 -28 -34
-46 0 -24 2 -25 48 -20 59 5 85 12 124 32 17 8 36 15 43 15 15 0 34 37 37 75
3 25 8 30 32 32 36 3 39 6 42 46 1 17 3 32 4 32 1 0 3 10 5 21 3 12 10 34 16
50 7 16 13 36 14 44 4 24 52 182 66 215 7 17 12 33 11 36 -2 11 69 89 81 89 7
0 21 -12 32 -27 11 -14 31 -38 45 -53 14 -15 34 -39 45 -52 55 -69 85 -96 111
-102 67 -15 83 -17 157 -21 82 -4 135 -13 152 -24 6 -4 16 -6 23 -5 6 1 16 2
22 3 35 4 -33 78 -116 126 -75 44 -72 43 -172 49 -49 3 -83 11 -105 25 -39 24
-144 132 -142 146 2 11 4 17 49 125 17 41 29 78 28 83 -1 4 2 7 7 7 5 0 14 13
20 28 19 45 81 106 153 150 l68 41 45 -24 c25 -14 47 -25 50 -25 3 0 7 -1 10
-1 3 -1 10 -3 15 -4 6 -1 11 -3 13 -5 2 -2 34 -10 62 -15 11 -2 40 -8 65 -12
62 -12 223 -9 295 7 33 7 68 13 78 13 9 1 17 4 17 8 0 3 37 6 83 6 l82 0 35
-53 c31 -47 67 -89 178 -212 37 -41 116 -152 108 -152 -3 0 -2 -10 3 -22 8
-23 -11 -99 -32 -125 -5 -7 -6 -13 -1 -13 5 0 5 -4 -1 -8 -5 -4 -19 -25 -30
-47 -25 -51 -65 -114 -87 -139 -10 -11 -18 -23 -18 -27 0 -11 -90 -119 -145
-174 -70 -69 -141 -126 -149 -118 -3 4 -6 -4 -6 -16 0 -12 7 -24 15 -27 8 -4
12 -11 8 -18 -5 -8 -3 -8 8 -1 8 6 50 10 94 9 44 -1 86 3 92 9 7 5 13 24 13
43 0 34 11 47 43 49 25 2 34 18 31 55 -1 16 2 30 8 30 5 0 7 4 3 9 -3 5 1 15
8 23 7 7 37 51 66 97 29 46 63 95 75 109 34 41 114 122 120 122 4 0 28 22 54
50 32 34 48 60 50 80 1 16 -1 30 -6 30 -4 0 -16 16 -27 36 -25 46 -25 181 0
251 4 12 -44 53 -63 53 -6 0 -12 3 -14 8 -1 4 -34 28 -73 54 -79 53 -174 141
-201 187 -10 17 -21 31 -25 31 -14 0 -68 137 -65 167 3 42 -18 44 -32 3 -16
-43 -92 -115 -155 -143 -61 -29 -147 -47 -192 -42 -97 12 -145 25 -145 37 0 6
-3 9 -6 5 -10 -10 -86 46 -128 94 -47 54 -70 103 -78 167 -1 13 -18 17 -18 5
-2 -29 -13 -91 -20 -103 -4 -8 -6 -23 -5 -32 2 -10 0 -18 -3 -18 -4 0 -16 -18
-26 -41 -21 -43 -78 -98 -147 -141 -24 -15 -53 -33 -64 -40 -53 -35 -135 -158
-135 -203 0 -7 -4 -16 -9 -19 -5 -4 -8 -17 -6 -31 1 -14 -1 -25 -6 -25 -4 0
-13 -17 -19 -37 -16 -50 -86 -182 -112 -209 -11 -12 -27 -21 -36 -19 -9 2 -23
4 -30 4 -17 1 -12 63 13 166 9 39 19 88 21 110 4 41 11 80 14 80 1 0 3 8 5 19
2 10 9 40 15 65 6 26 10 52 9 57 -1 5 0 11 1 14 6 15 5 62 -2 66 -4 3 -8 12
-8 21 0 9 -23 62 -51 119 -28 56 -52 110 -54 121 -2 10 -4 18 -6 18 -1 0 -3 9
-5 20 -2 11 -6 38 -10 60 -16 96 -4 145 55 225 35 48 100 108 124 116 11 4 30
15 41 25 11 11 26 19 33 19 7 0 13 3 13 8 0 4 11 19 24 33 13 14 27 36 32 50
8 25 6 77 -4 94 -5 9 -9 25 -14 63 -1 6 -5 12 -9 12 -4 0 -7 28 -5 63 l2 62
64 21 c36 11 76 19 90 17 71 -11 94 -6 129 26 17 16 31 38 31 48 0 25 -59 85
-242 245 -20 17 -20 17 1 39 11 12 23 31 27 41 3 10 10 18 15 18 6 0 8 4 5 9
-7 10 -58 8 -93 -3 -14 -4 -23 -3 -23 3 0 5 14 12 31 16 45 10 119 13 119 6 0
-4 -14 -26 -31 -49 -39 -53 -15 -45 29 11 31 37 32 42 15 48 -10 4 -44 6 -75
5 -32 -2 -58 1 -58 6 0 16 112 132 146 151 8 4 38 10 67 13 28 3 75 11 102 19
84 24 225 120 276 188 l22 30 -49 -34 c-27 -18 -51 -33 -54 -32 -3 1 -27 -4
-54 -12 -68 -21 -76 -18 -41 11 121 104 190 186 246 294 18 36 59 99 90 140
69 93 106 181 115 281 7 78 -9 162 -39 203 -12 16 -13 11 -9 -43 5 -71 -11
-140 -40 -171 -26 -27 -34 -18 -42 46 -9 78 -41 172 -83 243 -42 70 -137 164
-203 199 -47 25 -62 23 -35 -4 33 -33 93 -120 129 -186 35 -64 100 -245 111
-310 6 -30 4 -29 -34 19 -22 28 -57 61 -78 74 -21 12 -41 27 -44 32 -3 5 -8 8
-10 7 -2 -1 -22 3 -44 8 -63 17 -95 21 -95 13 0 -5 26 -25 58 -46 197 -130
246 -290 148 -486 -35 -69 -122 -189 -137 -189 -3 0 -5 33 -5 73 -1 93 -7 118
-44 193 -28 57 -95 132 -107 120 -3 -3 1 -23 10 -44 38 -94 53 -246 33 -330
-17 -74 -103 -166 -207 -222 l-57 -30 -13 37 c-30 96 -82 163 -145 189 -60 25
-70 18 -34 -23 32 -36 66 -102 76 -146 3 -12 8 -57 11 -101 4 -69 2 -82 -16
-107 -12 -15 -21 -31 -21 -34 0 -9 -39 -49 -43 -44 -31 41 -73 95 -77 99 -10
8 -69 99 -85 130 -25 47 -44 159 -41 240 1 60 8 88 29 132 35 72 34 76 -9 32
-54 -56 -94 -148 -108 -249 -2 -16 -5 -31 -5 -32 -1 -1 -33 15 -71 35 -157 83
-228 172 -254 322 -3 19 -8 46 -11 60 -13 62 -23 178 -24 285 -1 59 -3 67 -15
55 -17 -18 -56 -136 -48 -144 3 -3 1 -6 -4 -6 -10 0 -11 -14 -13 -145 -2 -90
-1 -101 14 -183 7 -41 6 -43 -12 -34 -20 11 -136 123 -165 160 -10 12 -18 27
-18 32 0 6 -4 10 -8 10 -7 0 -54 86 -51 93 1 1 -5 18 -13 37 -45 109 27 369
147 526 31 41 31 48 1 32 -62 -33 -171 -158 -215 -245 -34 -69 -36 -62 -15 67
3 19 11 51 17 70 6 19 11 40 12 45 7 78 129 328 190 388 9 10 15 20 12 23 -3
3 -37 -28 -77 -68z m-119 -211 c-6 -8 -8 -17 -4 -20 3 -4 2 -7 -4 -7 -6 0 -18
-26 -27 -57 -10 -32 -22 -69 -27 -83 -9 -26 -15 -55 -25 -125 -10 -65 -12 -88
-13 -137 -1 -28 -6 -48 -12 -48 -11 0 -8 151 5 232 13 81 90 258 113 258 3 0
0 -6 -6 -13z m1679 -433 c29 -19 60 -43 67 -52 38 -47 78 -172 55 -172 -5 0
-9 6 -9 13 0 7 -11 37 -25 67 -25 55 -77 116 -133 157 -49 36 -14 26 45 -13z
m345 -24 c-2 -36 -10 -58 -29 -81 -16 -19 -26 -25 -26 -15 0 8 4 17 9 20 9 6
31 79 34 113 0 12 4 20 8 17 4 -2 5 -26 4 -54z m-2180 -162 c44 -45 59 -65 40
-53 -52 31 -136 125 -112 125 1 0 34 -32 72 -72z m500 -112 c0 -90 -2 -162 -4
-160 -15 14 -21 209 -9 279 4 22 7 41 8 43 0 1 1 2 3 2 1 0 2 -74 2 -164z
m1166 -101 c44 -100 45 -167 1 -267 -9 -21 -19 -38 -23 -38 -5 0 -1 17 8 38
25 58 21 213 -7 287 -16 43 0 27 21 -20z m-387 -860 c14 -10 26 -19 26 -21 0
-7 -25 1 -32 11 -4 5 -32 10 -63 10 -45 0 -52 2 -39 12 21 15 75 9 108 -12z
m-23 -37 c5 -8 1 -21 -11 -33 -18 -18 -21 -18 -36 -3 -22 22 -10 58 18 53 12
-3 25 -10 29 -17z m-64 -93 c15 -4 55 -8 89 -9 48 -1 69 -7 102 -28 49 -33 52
-34 52 -9 0 11 -19 34 -41 52 -36 29 -39 34 -23 39 28 10 68 -4 106 -38 18
-17 44 -40 57 -51 l24 -21 -27 -35 -27 -34 -92 1 c-50 0 -103 -3 -117 -7 -38
-12 -143 -14 -157 -2 -7 5 -13 7 -13 3 0 -4 -11 1 -24 9 -23 15 -25 15 -46
-14 -33 -48 -79 -155 -95 -226 -37 -157 -38 -389 -3 -452 24 -44 7 -50 -37
-12 -42 37 -80 114 -90 182 -2 12 -6 33 -10 47 -6 25 -7 150 -1 205 3 27 12
55 33 105 3 8 7 17 7 20 1 3 14 32 30 65 40 81 118 196 172 252 l44 46 29 -40
c17 -23 41 -44 58 -48z m57 24 c-5 -10 -67 3 -81 17 -21 21 -16 21 36 5 27 -9
47 -19 45 -22z m30 -278 c-14 -10 -17 -29 -19 -136 -2 -55 -3 -103 -4 -107 -2
-11 -80 -89 -130 -128 -24 -19 -57 -58 -73 -87 -36 -63 -45 -71 -62 -47 -27
36 -4 114 51 174 49 54 73 87 73 100 0 6 3 9 8 7 4 -3 8 5 9 16 5 63 12 125
18 152 6 28 11 34 32 38 5 1 28 11 53 23 26 13 47 18 49 12 2 -6 0 -13 -5 -17z"/>
<path d="M1650 3120 c0 -5 5 -10 11 -10 5 0 7 5 4 10 -3 6 -8 10 -11 10 -2 0
-4 -4 -4 -10z"/>
<path d="M1629 3100 c13 -11 27 -20 32 -20 17 0 9 9 -23 24 l-33 16 24 -20z"/>
<path d="M1678 3023 c7 -3 16 -2 19 1 4 3 -2 6 -13 5 -11 0 -14 -3 -6 -6z"/>
<path d="M2140 2279 c0 -7 -21 -32 -46 -56 l-46 -42 33 5 c19 3 50 7 69 9 19
2 35 4 35 5 0 5 142 5 150 0 6 -3 17 -6 25 -5 8 1 30 -4 49 -12 43 -17 52 -16
44 2 -3 9 -8 14 -11 11 -2 -3 -23 8 -46 23 -41 28 -111 54 -151 55 -11 1 -24
4 -30 7 -22 12 -75 10 -75 -2z"/>
<path d="M2790 2223 c-100 -11 -295 -76 -284 -94 2 -4 14 -6 27 -3 12 2 38 7
57 10 19 4 44 8 55 11 47 9 147 16 240 16 90 1 133 -3 199 -20 11 -3 37 -8 56
-10 19 -3 40 -8 45 -12 6 -4 26 -7 45 -6 48 0 52 -11 20 -47 -16 -17 -31 -45
-34 -64 -4 -18 -12 -35 -19 -37 -7 -3 -5 -6 5 -6 9 -1 20 8 23 19 14 45 87
108 133 116 8 1 21 6 30 10 18 7 29 11 60 18 9 3 17 5 17 6 0 4 84 11 135 10
79 0 110 -4 110 -12 0 -5 3 -7 8 -6 16 5 103 -42 129 -70 51 -54 79 -96 73
-111 -1 -2 4 -7 10 -11 7 -4 13 -28 14 -54 2 -25 6 -49 9 -52 4 -4 2 -15 -4
-25 -5 -11 -8 -19 -5 -19 3 0 -2 -24 -10 -52 -19 -66 -92 -205 -129 -246 -42
-47 -136 -85 -151 -60 -3 5 -12 4 -19 -2 -8 -7 -18 -9 -24 -6 -5 3 -33 9 -63
12 -29 3 -55 9 -58 12 -8 11 -78 13 -84 3 -4 -5 3 -19 15 -30 25 -23 145 -74
172 -73 9 0 17 -4 17 -10 0 -6 3 -9 6 -6 8 9 134 -56 188 -97 27 -20 60 -50
73 -65 31 -37 87 -63 148 -68 55 -5 58 -6 61 -26 3 -24 -48 -39 -92 -27 -22 6
-42 11 -46 11 -4 1 -41 16 -82 35 -41 18 -77 31 -80 28 -3 -4 -6 -1 -6 5 0 7
-7 12 -15 12 -8 0 -15 6 -15 13 0 8 -4 7 -10 -3 -8 -13 -14 -8 -12 10 0 3 -9
7 -20 7 -20 2 -20 1 3 -15 13 -9 26 -15 28 -13 2 1 7 -1 10 -6 3 -6 33 -23 66
-40 84 -43 129 -67 135 -73 3 -3 18 -12 35 -20 50 -26 220 -200 287 -295 35
-50 65 -113 60 -128 -9 -28 121 -233 140 -221 14 9 78 144 67 144 -5 0 -9 6
-9 14 0 7 -12 19 -27 25 -16 7 -39 21 -52 31 -21 18 -22 22 -9 43 31 48 29 54
-23 88 -101 65 -201 199 -244 327 -21 64 -66 112 -106 112 -30 0 -76 17 -96
36 -7 7 -16 14 -20 16 -5 1 -22 20 -39 41 -47 57 -40 117 32 274 8 17 14 36
14 41 0 6 3 12 8 14 4 2 18 26 31 53 12 28 27 58 32 68 19 36 36 132 28 161
-8 28 -8 28 13 10 41 -38 77 -133 80 -213 1 -40 18 -67 26 -43 2 7 8 12 14 12
7 0 9 -20 5 -55 -5 -48 -3 -55 11 -53 14 2 17 -6 18 -45 0 -26 6 -53 12 -59 7
-7 12 -8 12 -4 0 5 16 -4 35 -18 l35 -27 -6 58 c-3 32 -12 85 -20 118 -8 33
-16 69 -19 81 -10 44 -65 165 -93 206 -17 24 -49 62 -72 86 -23 24 -40 45 -38
48 14 14 188 -199 188 -231 0 -5 7 -22 14 -37 20 -38 58 -177 51 -188 -3 -5
-1 -11 4 -15 5 -3 8 -14 6 -25 -2 -11 1 -20 7 -20 16 0 0 132 -27 219 -59 184
-200 337 -388 421 -23 11 -60 35 -82 54 -22 19 -43 32 -47 30 -4 -3 -8 -1 -8
5 0 10 -101 51 -135 55 -12 1 -25 5 -30 7 -13 7 -112 3 -190 -6 -33 -4 -71 -8
-85 -9 -14 -1 -30 -5 -35 -8 -12 -7 -151 -2 -185 7 -14 4 -36 8 -50 9 -14 2
-41 6 -61 10 -37 8 -187 14 -229 9z"/>
<path d="M3860 1965 c-1 -5 -3 -46 -5 -90 -2 -44 -6 -93 -9 -108 -18 -79 -87
-204 -128 -231 -32 -21 -107 -48 -140 -50 -39 -2 -45 -14 -12 -22 76 -20 167
1 212 49 26 28 99 175 109 220 13 59 7 181 -10 212 -9 17 -17 26 -17 20z"/>
<path d="M2303 1868 c-4 -58 -28 -157 -50 -205 -14 -34 -48 -78 -90 -121 -75
-74 -113 -120 -113 -135 0 -5 14 4 30 20 17 17 63 48 102 69 153 84 182 145
153 329 -7 48 -30 78 -32 43z"/>
</g>
</svg>
